<svg xmlns="http://www.w3.org/2000/svg" xmlns:xlink="http://www.w3.org/1999/xlink" viewBox="0 0 730.252 345.446">
  <defs>
    <style>
      .cls-1 {
        fill: #3865bf;
        opacity: 0.339;
      }

      .cls-2 {
        opacity: 0.387;
      }

      .cls-2, .cls-3 {
        fill: url(#linear-gradient);
      }
    </style>
    <linearGradient id="linear-gradient" y1="0.5" x2="1" y2="0.5" gradientUnits="objectBoundingBox">
      <stop offset="0.002" stop-color="#cb1b5e"/>
      <stop offset="1" stop-color="#300d5d"/>
      <stop offset="1" stop-color="#2d0d53" stop-opacity="0"/>
    </linearGradient>
  </defs>
  <g id="Group_33" data-name="Group 33" transform="translate(0 -648.568)">
    <path id="Path_1093" data-name="Path 1093" class="cls-1" d="M433.906,840.474c-56.748,11.353-24.879,11.9,36.525,104.794s268.892,10.353,226.991-45.41S490.654,829.121,433.906,840.474Z" transform="translate(27.288 -13.383)"/>
    <path id="Path_1113" data-name="Path 1113" class="cls-2" d="M0,6S316.182,151.32,239,50,405.25-36.25,494,0,714,99,594,195s-182-38-357-20S0,291,0,291Z" transform="translate(0 703.015)"/>
    <path id="Path_1088" data-name="Path 1088" class="cls-3" d="M0,6S316.182,151.32,239,50,405.25-36.25,494,0,714,99,594,195s-182-38-357-20S0,291,0,291Z" transform="translate(0 676.015)"/>
  </g>
</svg>
