<svg xmlns="http://www.w3.org/2000/svg" xmlns:xlink="http://www.w3.org/1999/xlink" viewBox="0 0 521.434 508.384">
  <defs>
    <style>
      .cls-1 {
        fill: #ec9198;
        opacity: 0.201;
      }

      .cls-2 {
        opacity: 0.558;
        fill: url(#linear-gradient);
      }

      .cls-3 {
        fill: url(#linear-gradient-2);
      }

      .cls-4 {
        fill: url(#linear-gradient-3);
      }

      .cls-5 {
        fill: url(#linear-gradient-4);
      }

      .cls-6 {
        fill: url(#linear-gradient-5);
      }

      .cls-7 {
        fill: url(#linear-gradient-6);
      }

      .cls-8 {
        fill: url(#linear-gradient-7);
      }

      .cls-9 {
        fill: #fff;
      }

      .cls-10 {
        fill: #921e26;
        stroke: #931e26;
      }

      .cls-11 {
        stroke: #182377;
        fill: url(#linear-gradient-8);
      }

      .cls-12 {
        fill: url(#radial-gradient);
      }

      .cls-13 {
        fill: url(#linear-gradient-9);
      }

      .cls-14 {
        opacity: 0.37;
      }

      .cls-15 {
        fill: url(#linear-gradient-10);
      }

      .cls-16 {
        fill: #c42d39;
      }

      .cls-17 {
        fill: url(#radial-gradient-2);
      }

      .cls-18, .cls-21 {
        fill: #231f20;
      }

      .cls-18 {
        opacity: 0.3;
      }

      .cls-19 {
        fill: url(#linear-gradient-11);
      }

      .cls-20 {
        fill: url(#linear-gradient-12);
      }

      .cls-21 {
        opacity: 0.6;
      }

      .cls-22 {
        opacity: 0.43;
      }

      .cls-23 {
        fill: #2e3192;
      }

      .cls-24 {
        opacity: 0.25;
        fill: url(#linear-gradient-13);
      }

      .cls-25 {
        fill: none;
      }
    </style>
    <linearGradient id="linear-gradient" x1="0.5" x2="0.5" y2="1" gradientUnits="objectBoundingBox">
      <stop offset="0" stop-color="#cb1b5e"/>
      <stop offset="0.002" stop-color="#cb1b5e"/>
      <stop offset="1" stop-color="#e64a3d"/>
      <stop offset="1" stop-color="#300d5d"/>
      <stop offset="1" stop-color="#2d0d53" stop-opacity="0"/>
    </linearGradient>
    <linearGradient id="linear-gradient-2" y1="0.499" x2="1" y2="0.499" gradientUnits="objectBoundingBox">
      <stop offset="0" stop-color="#c42d39"/>
      <stop offset="1" stop-color="#7e181e"/>
    </linearGradient>
    <linearGradient id="linear-gradient-3" x1="0" y1="0.5" x2="1" y2="0.5" xlink:href="#linear-gradient-2"/>
    <linearGradient id="linear-gradient-4" x1="-0.002" y1="0.5" x2="0.998" y2="0.5" xlink:href="#linear-gradient-2"/>
    <linearGradient id="linear-gradient-5" x1="0.874" y1="0.46" x2="-0.102" y2="0.567" xlink:href="#linear-gradient-2"/>
    <linearGradient id="linear-gradient-6" x1="0.887" y1="0.401" x2="-0.091" y2="0.519" xlink:href="#linear-gradient-2"/>
    <linearGradient id="linear-gradient-7" x1="5.324" y1="-0.305" x2="5.693" y2="-1.203" xlink:href="#linear-gradient-2"/>
    <linearGradient id="linear-gradient-8" x1="1.105" y1="0.233" x2="0.068" y2="0.849" gradientUnits="objectBoundingBox">
      <stop offset="0" stop-color="#4548bd"/>
      <stop offset="1" stop-color="#0c1963"/>
    </linearGradient>
    <radialGradient id="radial-gradient" cx="127.759" cy="596.494" r="42.935" gradientTransform="matrix(0.998, 0.061, -0.061, 0.998, 17.284, 15.273)" xlink:href="#linear-gradient-2"/>
    <linearGradient id="linear-gradient-9" x1="0.334" y1="0.879" x2="1.876" y2="1.504" gradientUnits="objectBoundingBox">
      <stop offset="0" stop-color="#0c1963"/>
      <stop offset="1" stop-color="#4548bd"/>
    </linearGradient>
    <linearGradient id="linear-gradient-10" x1="2.12" y1="1.546" x2="1.276" y2="0.732" gradientUnits="objectBoundingBox">
      <stop offset="0" stop-color="#0c1963"/>
      <stop offset="1" stop-color="#2e3192"/>
    </linearGradient>
    <radialGradient id="radial-gradient-2" cx="145.405" cy="272.896" r="42.919" gradientTransform="matrix(0.998, 0.061, -0.061, 0.998, 10.788, 4.625)" xlink:href="#linear-gradient-2"/>
    <linearGradient id="linear-gradient-11" x1="3.894" y1="0.938" x2="4.558" y2="1.316" xlink:href="#linear-gradient-10"/>
    <linearGradient id="linear-gradient-12" x1="0.398" y1="0.583" x2="1.398" y2="0.583" xlink:href="#linear-gradient-9"/>
    <linearGradient id="linear-gradient-13" x1="0.888" y1="1.025" x2="1.743" y2="1.025" gradientUnits="objectBoundingBox">
      <stop offset="0" stop-color="#2e3192"/>
      <stop offset="0.36" stop-color="#4548bd"/>
      <stop offset="0.53" stop-color="#2e3192"/>
      <stop offset="1"/>
    </linearGradient>
  </defs>
  <g id="Group_36" data-name="Group 36" transform="translate(-758.566 -2410.681)">
    <path id="Path_1091" data-name="Path 1091" class="cls-1" d="M733,2832.749c49.046-29.92,134.749-116.1,239-35.6s1.444,106.472-85,87.687c-65.61-14.258-66.057.146-111.186,31.992C718.506,2943.233,683.954,2862.669,733,2832.749Z" transform="translate(49 -3)"/>
    <path id="Path_1090" data-name="Path 1090" class="cls-2" d="M818,2623.6c100.27-3.136,117.553-76.844,255-134.139s178.248,212.011,142.516,281.607-170.057,160.726-382.094,82.406S717.73,2626.739,818,2623.6Z" transform="translate(52.217 -31)"/>
    <g id="Group_23" data-name="Group 23" transform="translate(28.527 2347.886)">
      <path id="Path_1059" data-name="Path 1059" class="cls-3" d="M293.74,149.981a95.659,95.659,0,0,0-13.883,4.5c-35.247-32.5-56.467-37.741-56.467-37.741l12.121-8.836s20.681,2.626,60.1,41.661Z" transform="translate(682.349 66.787)"/>
      <path id="Path_1060" data-name="Path 1060" class="cls-4" d="M380.373,284.335a3.487,3.487,0,0,1-.228.348c-.312.468-.635.947-.971,1.415-.6.851-1.2,1.7-1.834,2.53q-2.4-4.532-5.251-9.435l-.108-.18q-2.662-4.652-5.695-9.591c-7.577-12.492-16.844-26.6-28.162-42.536l-.731-1.031q-1.642-2.3-3.345-4.664-5.107-7.109-10.071-13.607-6.138-8.068-11.989-15.286c-7.661-9.435-14.986-17.815-21.928-25.26-2.65-2.853-5.263-5.575-7.8-8.152-1.139-1.2-2.266-2.29-3.381-3.393q-2.278-2.266-4.5-4.388c1.007-.384,2.038-.743,3.069-1.091l1.93-.623c1.019-.324,2.05-.611,3.081-.887.827-.24,1.654-.444,2.494-.647s1.858-.432,2.793-.623,1.738-.348,2.6-.492q4.076,4.172,8.392,8.872,2.626,2.865,5.347,5.922c1.067,1.2,2.146,2.4,3.237,3.681,7.193,8.236,14.83,17.516,22.911,27.958q4.58,5.934,9.363,12.372l1.87,2.518q7.193,9.711,13.451,18.583l.875,1.2q9.591,13.547,17.252,25.176,3.6,5.539,6.894,10.682,1.978,3.153,3.836,6.15c.2.348.42.683.623,1.019.647,1.043,1.271,2.074,1.882,3.093-.072.144-.132.288-.2.42h0c-.2.408-.408.815-.623,1.2-.072.156-.156.312-.24.456-.24.48-.492.959-.755,1.427l-.288.539c-.252.456-.5.9-.767,1.343s-.6,1.043-.911,1.559-.563.935-.851,1.391c-.1.156-.192.324-.3.48A17.362,17.362,0,0,1,380.373,284.335Z" transform="translate(692.49 74.512)"/>
      <path id="Path_1061" data-name="Path 1061" class="cls-5" d="M393.457,332.706l-.324.156-.216.1h-.06l-15.669,7.325c.192-.156,2.937-2.566,3.6-9.867,0-.48.072-.971.1-1.487a37.708,37.708,0,0,0,0-4.16,49.712,49.712,0,0,0-.515-5.047c-.18-1.295-.42-2.661-.707-4.112-.492-2.4-1.2-5-1.978-7.853a145.08,145.08,0,0,0-4.855-13.931c-1.81-4.52-3.992-9.459-6.618-14.854q-1.594-3.309-3.417-6.834c.324-.4.635-.8.959-1.2l.6-.791.8-1.079c.336-.456.671-.923,1-1.391s.623-.887.923-1.343.516-.743.755-1.115c.4-.6.791-1.2,1.2-1.81.5-.8,1-1.606,1.475-2.4s.815-1.415,1.2-2.146c.2-.348.4-.707.587-1.067q2.134,3.6,4.04,7.049c3.057,5.455,5.695,10.466,7.985,15.082,8.68,17.516,12.181,29.313,13.188,37.165C399.008,330.476,393.457,332.706,393.457,332.706Z" transform="translate(710.073 96.599)"/>
      <path id="Path_1062" data-name="Path 1062" class="cls-6" d="M233.073,225.929a94.9,94.9,0,0,0,4.712,26c-2.733-.12-5.671-.611-14.746-1.822-65.627-8.74-61.239-22.3-61.239-22.3l.2-17.671C162.2,212.286,166.368,223.543,233.073,225.929Z" transform="translate(670.088 87.121)"/>
      <path id="Path_1063" data-name="Path 1063" class="cls-7" d="M277.3,237.641s-21.58,10.79-42.632,11.461l-3.6.132a89.617,89.617,0,0,1-5.011-25.764c8.2.24,1.583,0,9.291.767C255.588,226.287,277.3,237.641,277.3,237.641Z" transform="translate(682.88 89.772)"/>
      <path id="Path_1064" data-name="Path 1064" class="cls-8" d="M439.748,223.114s-3.441,9.231-20.381,14.039c-15.142,4.316-30.727,2.146-30.727,2.146s13.188,1.2,30.655-5.922c19.4-7.961,20.381-16.676,20.381-16.676Z" transform="translate(715.214 88.425)"/>
      <path id="Path_1065" data-name="Path 1065" class="cls-9" d="M407.033,233.987a89.5,89.5,0,0,0-104.95-84.941c-.863.144-1.738.312-2.6.492s-1.87.4-2.793.623-1.666.408-2.494.647c-1.031.276-2.062.563-3.081.887l-1.93.623c-1.031.348-2.062.707-3.069,1.091a89.412,89.412,0,0,0-55.232,61.694,88.08,88.08,0,0,0-2.757,19.65q0,3.183,0,6.33v.372a7.6,7.6,0,0,0,.072,1.283c.06.959.132,1.918.228,2.865a8.452,8.452,0,0,0,.1.947,4.129,4.129,0,0,0,.084.8c.06.528.132,1.067.2,1.595.108.839.228,1.666.372,2.482.06.384.12.767.192,1.2s.192,1.079.3,1.618c.2,1.079.432,2.146.683,3.213s.5,2.038.767,3.057q.887,3.237,1.99,6.378a89.46,89.46,0,0,0,137.032,42.68l.671-.492a88.455,88.455,0,0,0,18.271-18.1c.623-.827,1.2-1.678,1.834-2.53.336-.468.659-.947.971-1.415a3.482,3.482,0,0,0,.228-.348c.336-.492.659-.983.971-1.487.108-.156.2-.324.3-.48.288-.456.575-.923.851-1.391s.623-1.031.911-1.559.516-.887.767-1.343l.288-.539c.264-.468.516-.947.755-1.427.084-.144.168-.3.24-.456.216-.408.42-.815.623-1.2h0c.072-.132.132-.276.2-.42,1.2-2.578,2.4-5.251,3.429-8a89.21,89.21,0,0,0,5.575-34.408Zm-42.177,67.137h0a79.542,79.542,0,0,1-126.218-54.165c-.2-1.666-.36-3.345-.468-5.023a78.142,78.142,0,0,1,0-8.548,79.125,79.125,0,0,1,3.417-19.506q.683-2.23,1.511-4.46a81.01,81.01,0,0,1,6.27-13.116c.324-.539.647-1.067.983-1.595a79.57,79.57,0,0,1,43.7-33.569c1.654-.516,3.333-.983,5.023-1.379a78.167,78.167,0,0,1,11.473-1.894c.707-.072,1.427-.12,2.134-.168a79.558,79.558,0,0,1,79.534,107.144c-.144.4-.3.8-.468,1.2a79.124,79.124,0,0,1-7.961,15.274l-.084.132c-.108.156-.2.312-.312.456a78.79,78.79,0,0,1-18.535,19.23Zm42.177-67.137a89.5,89.5,0,0,0-104.95-84.941c-.863.144-1.738.312-2.6.492s-1.87.4-2.793.623-1.666.408-2.494.647c-1.031.276-2.062.563-3.081.887l-1.93.623c-1.031.348-2.062.707-3.069,1.091a89.413,89.413,0,0,0-55.232,61.694,88.082,88.082,0,0,0-2.758,19.65q0,3.183,0,6.33v.372a7.6,7.6,0,0,0,.072,1.283c.06.959.132,1.918.228,2.865a8.452,8.452,0,0,0,.1.947,4.129,4.129,0,0,0,.084.8c.06.528.132,1.067.2,1.595.108.839.228,1.666.372,2.482.06.384.12.767.192,1.2s.192,1.079.3,1.618c.2,1.079.432,2.146.683,3.213s.5,2.038.767,3.057q.887,3.237,1.99,6.378a89.46,89.46,0,0,0,137.032,42.68l.671-.492a88.455,88.455,0,0,0,18.271-18.1c.623-.827,1.2-1.678,1.834-2.53.336-.468.659-.947.971-1.415a3.482,3.482,0,0,0,.228-.348c.336-.492.659-.983.971-1.487.108-.156.2-.324.3-.48.288-.456.575-.923.851-1.391s.623-1.031.911-1.559.516-.887.767-1.343l.288-.539c.264-.468.516-.947.755-1.427.084-.144.168-.3.24-.456.216-.408.42-.815.623-1.2h0c.072-.132.132-.276.2-.42,1.2-2.578,2.4-5.251,3.429-8a89.21,89.21,0,0,0,5.575-34.408Zm-42.177,67.137h0a79.542,79.542,0,0,1-126.218-54.165c-.2-1.666-.36-3.345-.468-5.023a78.142,78.142,0,0,1,0-8.548,79.125,79.125,0,0,1,3.417-19.506q.683-2.23,1.511-4.46a81.01,81.01,0,0,1,6.27-13.116c.324-.539.647-1.067.983-1.595a79.57,79.57,0,0,1,43.7-33.569c1.654-.516,3.333-.983,5.023-1.379a78.167,78.167,0,0,1,11.473-1.894c.707-.072,1.427-.12,2.134-.168a79.558,79.558,0,0,1,79.534,107.144c-.144.4-.3.8-.468,1.2a79.124,79.124,0,0,1-7.961,15.274l-.084.132c-.108.156-.2.312-.312.456a78.79,78.79,0,0,1-18.535,19.23Zm53.086-83.5a103.469,103.469,0,0,0-3.177-12.193,102.216,102.216,0,0,0-121.087-67.677c-.815.192-1.63.408-2.4.623a104.308,104.308,0,0,0-15.525,5.515,102.828,102.828,0,0,0-31.231,21.724,101.616,101.616,0,0,0-20.777,31.015c-.7,1.595-1.355,3.225-1.966,4.879a103.632,103.632,0,0,0-4.448,15.525,102.268,102.268,0,0,0-2.014,19.818c0,1.2,0,2.494,0,3.74.1,2.733.3,5.467.6,8.164a102.277,102.277,0,0,0,161.045,71.609c.767-.539,1.523-1.091,2.278-1.666A100.608,100.608,0,0,0,391.3,308.018c1.427-1.487,2.817-3.021,4.148-4.6a98.481,98.481,0,0,0,9.1-12.54c.348-.54.671-1.091,1-1.642a102.217,102.217,0,0,0,12.4-71.621Zm-11.09,52.751a95.362,95.362,0,0,1-5.347,11.845c-.192.36-.384.719-.587,1.067h0c-.4.719-.791,1.427-1.2,2.134s-.971,1.618-1.475,2.4c-.372.611-.767,1.2-1.2,1.81q-.36.563-.755,1.115c-.3.456-.6.9-.923,1.343s-.659.935-1,1.391l-.8,1.079-.6.791c-.324.408-.635.815-.959,1.2-1.822,2.3-3.753,4.5-5.767,6.594a94.942,94.942,0,0,1-11.689,10.3l-1.343.983A95.181,95.181,0,0,1,227.129,266.9c-.683-2.086-1.307-4.208-1.846-6.342-.108-.408-.2-.815-.3-1.2s-.144-.575-.2-.863c-.132-.527-.252-1.067-.36-1.607q-.4-1.846-.719-3.74c-.1-.563-.192-1.115-.276-1.678l-.252-1.774c-.084-.587-.156-1.2-.216-1.774h0c-.072-.492-.12-.983-.168-1.475,0-.264-.06-.539-.072-.8-.144-1.571-.252-3.141-.3-4.712s-.108-3.477-.072-5.227a94.362,94.362,0,0,1,2.4-19.746,96.641,96.641,0,0,1,3.6-11.989c1.031-2.757,2.17-5.455,3.441-8.056a94.4,94.4,0,0,1,17.743-25.38,95.491,95.491,0,0,1,31.95-21.472l1.7-.671c.563-.228,1.139-.444,1.7-.647s1.139-.42,1.714-.611q4.316-1.5,8.764-2.566l1.87-.42a95.215,95.215,0,0,1,109.638,126.23Zm-2.518-55.148a89.482,89.482,0,0,0-102.252-66.154c-.863.144-1.738.312-2.6.492s-1.87.4-2.793.623-1.666.408-2.494.647c-1.031.276-2.062.563-3.081.887l-1.93.623c-1.031.348-2.062.707-3.069,1.091a89.412,89.412,0,0,0-55.232,61.67,88.084,88.084,0,0,0-2.757,19.65v6.7a7.6,7.6,0,0,0,.072,1.283c.06.959.132,1.918.228,2.865a8.452,8.452,0,0,0,.1.947,4.129,4.129,0,0,0,.084.8c.06.528.132,1.067.2,1.595.108.839.228,1.666.372,2.482.06.384.12.767.192,1.2s.192,1.079.3,1.618c.2,1.079.432,2.146.683,3.213s.5,2.038.767,3.057q.887,3.237,1.99,6.378a89.46,89.46,0,0,0,137.032,42.68l.671-.492a88.455,88.455,0,0,0,18.271-18.1c.623-.827,1.2-1.678,1.834-2.53.336-.468.659-.947.971-1.415a3.482,3.482,0,0,0,.228-.348c.336-.492.659-.983.971-1.487.108-.156.2-.324.3-.48.288-.456.575-.923.851-1.391s.623-1.031.911-1.559.516-.887.767-1.343l.288-.539c.264-.468.516-.947.755-1.427.084-.144.168-.3.24-.456.216-.408.42-.815.623-1.2h0c.072-.132.132-.276.2-.42,1.2-2.578,2.4-5.251,3.429-8a89.088,89.088,0,0,0,2.877-53.158Zm-39.479,85.936h0a79.565,79.565,0,0,1-126.218-54.2c-.2-1.666-.36-3.345-.468-5.023a78.142,78.142,0,0,1,0-8.548,79.125,79.125,0,0,1,3.417-19.506q.683-2.23,1.511-4.46a81.01,81.01,0,0,1,6.27-13.116c.324-.539.647-1.067.983-1.595a79.57,79.57,0,0,1,43.7-33.569c1.654-.516,3.333-.983,5.023-1.379a78.167,78.167,0,0,1,11.473-1.894c.707-.072,1.427-.12,2.134-.168a79.558,79.558,0,0,1,79.534,107.144c-.144.4-.3.8-.468,1.2a79.124,79.124,0,0,1-7.961,15.274l-.084.132c-.108.156-.2.312-.312.456a78.79,78.79,0,0,1-18.535,19.23Zm42.177-67.137a89.5,89.5,0,0,0-104.95-84.941c-.863.144-1.738.312-2.6.492s-1.87.4-2.793.623-1.666.408-2.494.647c-1.031.276-2.062.563-3.081.887l-1.93.623c-1.031.348-2.062.707-3.069,1.091a89.412,89.412,0,0,0-55.232,61.658,88.085,88.085,0,0,0-2.757,19.65v6.7a7.6,7.6,0,0,0,.072,1.283c.06.959.132,1.918.228,2.865a8.452,8.452,0,0,0,.1.947,4.129,4.129,0,0,0,.084.8c.06.528.132,1.067.2,1.595.108.839.228,1.666.372,2.482.06.384.12.767.192,1.2s.192,1.079.3,1.618c.2,1.079.432,2.146.683,3.213s.5,2.038.767,3.057q.887,3.237,1.99,6.378a89.46,89.46,0,0,0,137.032,42.68l.671-.492a88.455,88.455,0,0,0,18.271-18.1c.623-.827,1.2-1.678,1.834-2.53.336-.468.659-.947.971-1.415a3.482,3.482,0,0,0,.228-.348c.336-.492.659-.983.971-1.487.108-.156.2-.324.3-.48.288-.456.575-.923.851-1.391s.623-1.031.911-1.559.516-.887.767-1.343l.288-.539c.264-.468.516-.947.755-1.427.084-.144.168-.3.24-.456.216-.408.42-.815.623-1.2h0c.072-.132.132-.276.2-.42,1.2-2.578,2.4-5.251,3.429-8a89.21,89.21,0,0,0,5.575-34.408Zm-42.177,67.137h0a79.565,79.565,0,0,1-126.218-54.2c-.2-1.666-.36-3.345-.468-5.023a78.142,78.142,0,0,1,0-8.548,79.125,79.125,0,0,1,3.417-19.506q.683-2.23,1.511-4.46a81.01,81.01,0,0,1,6.27-13.116c.324-.539.647-1.067.983-1.595a79.57,79.57,0,0,1,43.7-33.569c1.654-.516,3.333-.983,5.023-1.379a78.167,78.167,0,0,1,11.473-1.894c.707-.072,1.427-.12,2.134-.168a79.558,79.558,0,0,1,79.534,107.144c-.144.4-.3.8-.468,1.2a79.124,79.124,0,0,1-7.961,15.274l-.084.132c-.108.156-.2.312-.312.456a78.79,78.79,0,0,1-18.535,19.23Zm42.177-67.137a89.5,89.5,0,0,0-104.95-84.941c-.863.144-1.738.312-2.6.492s-1.87.4-2.793.623-1.666.408-2.494.647c-1.031.276-2.062.563-3.081.887l-1.93.623c-1.031.348-2.062.707-3.069,1.091a89.412,89.412,0,0,0-55.232,61.658,88.085,88.085,0,0,0-2.757,19.65v6.7a7.6,7.6,0,0,0,.072,1.283c.06.959.132,1.918.228,2.865a8.452,8.452,0,0,0,.1.947,4.129,4.129,0,0,0,.084.8c.06.528.132,1.067.2,1.595.108.839.228,1.666.372,2.482.06.384.12.767.192,1.2s.192,1.079.3,1.618c.2,1.079.432,2.146.683,3.213s.5,2.038.767,3.057q.887,3.237,1.99,6.378a89.46,89.46,0,0,0,137.032,42.68l.671-.492a88.455,88.455,0,0,0,18.271-18.1c.623-.827,1.2-1.678,1.834-2.53.336-.468.659-.947.971-1.415a3.482,3.482,0,0,0,.228-.348c.336-.492.659-.983.971-1.487.108-.156.2-.324.3-.48.288-.456.575-.923.851-1.391s.623-1.031.911-1.559.516-.887.767-1.343l.288-.539c.264-.468.516-.947.755-1.427.084-.144.168-.3.24-.456.216-.408.42-.815.623-1.2h0c.072-.132.132-.276.2-.42,1.2-2.578,2.4-5.251,3.429-8a89.21,89.21,0,0,0,5.575-34.408Zm-42.177,67.137h0a79.565,79.565,0,0,1-126.218-54.2c-.2-1.666-.36-3.345-.468-5.023a78.142,78.142,0,0,1,0-8.548,79.125,79.125,0,0,1,3.417-19.506q.683-2.23,1.511-4.46a81.01,81.01,0,0,1,6.27-13.116c.324-.539.647-1.067.983-1.595a79.57,79.57,0,0,1,43.7-33.569c1.654-.516,3.333-.983,5.023-1.379a78.167,78.167,0,0,1,11.473-1.894c.707-.072,1.427-.12,2.134-.168a79.558,79.558,0,0,1,79.534,107.144c-.144.4-.3.8-.468,1.2a79.124,79.124,0,0,1-7.961,15.274l-.084.132c-.108.156-.2.312-.312.456a78.79,78.79,0,0,1-18.535,19.23Z" transform="translate(680.744 72.157)"/>
      <path id="Path_1066" data-name="Path 1066" class="cls-10" d="M404.909,231.865a89.5,89.5,0,0,0-104.95-84.941c-.863.144-1.738.312-2.6.492s-1.87.4-2.793.623-1.666.408-2.494.647c-1.031.276-2.062.563-3.081.887l-1.93.623c-1.031.348-2.062.707-3.069,1.091a89.412,89.412,0,0,0-55.232,61.694A88.08,88.08,0,0,0,226,232.633q0,3.183,0,6.33v.372a7.6,7.6,0,0,0,.072,1.283c.06.959.132,1.918.228,2.865a8.452,8.452,0,0,0,.1.947,4.129,4.129,0,0,0,.084.8c.06.528.132,1.067.2,1.595.108.839.228,1.666.372,2.482.06.384.12.767.192,1.2s.192,1.079.3,1.618c.2,1.079.432,2.146.683,3.213s.5,2.038.767,3.057q.887,3.237,1.99,6.378a89.46,89.46,0,0,0,137.032,42.68l.671-.492a88.454,88.454,0,0,0,18.271-18.1c.623-.827,1.2-1.678,1.834-2.53.336-.468.659-.947.971-1.415a3.471,3.471,0,0,0,.228-.348c.336-.492.659-.983.971-1.487.108-.156.2-.324.3-.48.288-.456.576-.923.851-1.391s.623-1.031.911-1.559.516-.887.767-1.343l.288-.539c.264-.468.516-.947.755-1.427.084-.144.168-.3.24-.456.216-.408.42-.815.623-1.2h0c.072-.132.132-.276.2-.42,1.2-2.578,2.4-5.251,3.429-8a89.209,89.209,0,0,0,5.575-34.408Zm-31.626,41.961a69.535,69.535,0,0,1-69.811,29.78,68.336,68.336,0,0,1-12.277-3.333,69.7,69.7,0,0,1-44.55-54.681c-.216-1.343-.384-2.7-.516-4.064a69.355,69.355,0,0,1,4.076-30.811,71.781,71.781,0,0,1,5.479-11.437,68.021,68.021,0,0,1,4.915-7.193,69.847,69.847,0,0,1,50.521-26.555c1.93-.12,3.872-.168,5.826-.132a68.779,68.779,0,0,1,14.554,1.87,67.733,67.733,0,0,1,8.248,2.506,69.619,69.619,0,0,1,42.932,83.514c-.552,2.014-1.2,4.028-1.942,5.994a68.566,68.566,0,0,1-4.8,10.3c-.863,1.487-1.738,2.889-2.662,4.268Z" transform="translate(682.868 74.279)"/>
      <path id="Path_1067" data-name="Path 1067" class="cls-11" d="M436.088,223.794a105.3,105.3,0,0,0-2.122-11.293,117.172,117.172,0,0,0-194.194-58.11c-.384.348-.755.707-1.127,1.079-.779.731-1.535,1.487-2.29,2.254a116.747,116.747,0,0,0-26.04,41.11c-.3.791-.575,1.583-.863,2.4a115.951,115.951,0,0,0-4.112,61.886c.2,1.055.432,2.11.683,3.153A117.106,117.106,0,0,0,387.389,335.41c1.535-1.079,3.045-2.182,4.52-3.345A115.553,115.553,0,0,0,404.5,320.772h0a114.288,114.288,0,0,0,9.915-11.785c.527-.707,1.043-1.415,1.547-2.146A117.934,117.934,0,0,0,435.6,258.562c.06-.324.108-.647.168-.983a116.447,116.447,0,0,0,.324-33.784Zm-26.771,49.058A95.361,95.361,0,0,1,403.97,284.7c-.192.36-.384.719-.587,1.067h0c-.4.719-.791,1.427-1.2,2.134s-.971,1.618-1.475,2.4c-.372.611-.767,1.2-1.2,1.81q-.36.563-.755,1.115c-.3.456-.6.9-.923,1.343s-.659.935-1,1.391l-.8,1.079-.6.791c-.324.408-.635.815-.959,1.2-1.822,2.3-3.753,4.5-5.767,6.594a94.941,94.941,0,0,1-11.689,10.3l-1.343.983a95.174,95.174,0,0,1-146.083-47.548c-.683-2.086-1.307-4.208-1.846-6.342-.108-.408-.2-.815-.3-1.2s-.144-.575-.2-.863c-.132-.527-.252-1.067-.36-1.607q-.4-1.846-.719-3.74c-.1-.563-.192-1.115-.276-1.678l-.252-1.774c-.084-.587-.156-1.2-.216-1.774h0c-.072-.492-.12-.983-.168-1.475,0-.264-.06-.539-.072-.8-.144-1.571-.252-3.141-.3-4.712s-.108-3.477-.072-5.227a94.362,94.362,0,0,1,2.4-19.746,96.641,96.641,0,0,1,3.6-11.989c1.031-2.757,2.17-5.455,3.441-8.056a94.4,94.4,0,0,1,17.743-25.38,95.491,95.491,0,0,1,31.95-21.472l1.7-.671c.563-.228,1.139-.444,1.7-.647s1.139-.42,1.714-.611q4.316-1.5,8.764-2.566l1.87-.42a95.215,95.215,0,0,1,109.638,126.23Z" transform="translate(678.28 69.702)"/>
      <path id="Path_1068" data-name="Path 1068" class="cls-9" d="M367,254.469c.216-.408.42-.815.623-1.2h0A11.546,11.546,0,0,1,367,254.469Z" transform="translate(710.91 95.698)"/>
      <path id="Path_1069" data-name="Path 1069" class="cls-12" d="M404.128,329.758a18.966,18.966,0,0,1-36.889-7.445,11.259,11.259,0,0,1,.168-1.559,19.853,19.853,0,0,1,.779-3.153,19.184,19.184,0,0,1,1.678-3.6c.216-.36.444-.719.671-1.067a5.675,5.675,0,0,1,.48-.647,18.427,18.427,0,0,1,4.616-4.34,18.954,18.954,0,0,1,28.5,21.808Z" transform="translate(710.948 105.937)"/>
      <path id="Path_1070" data-name="Path 1070" class="cls-13" d="M183.543,221.288a18.683,18.683,0,0,1-37.3-2.278,5.908,5.908,0,0,1,0-.647,18.678,18.678,0,0,1,37.237,2.925Z" transform="translate(667 85.396)"/>
      <path id="Path_1071" data-name="Path 1071" class="cls-14" d="M391.859,323.21c-1.439.563-5.563-.2-5.563-.2l-16.856-9.363c.216-.36.444-.719.671-1.067a5.672,5.672,0,0,1,.48-.647,17.024,17.024,0,0,1,6.5-5.479C381.74,316.952,391.859,323.21,391.859,323.21Z" transform="translate(711.396 106.275)"/>
      <path id="Path_1072" data-name="Path 1072" class="cls-15" d="M406.367,338.216s-11.5,7.7-16.389,7.4c-1.942-.12-19.278,0-54.537-30.044-12.384-10.562-25.6-26.375-38.664-43.543L296.49,231l34.767,21.76c1.259,1.906,12.061,24.409,25.812,40.114C385.914,325.711,404.557,339.283,406.367,338.216Z" transform="translate(696.887 91.269)"/>
      <path id="Path_1073" data-name="Path 1073" class="cls-16" d="M393.676,335a1.2,1.2,0,0,1-.216.156Z" transform="translate(716.173 111.953)"/>
      <path id="Path_1074" data-name="Path 1074" class="cls-17" d="M252.817,114.02a18.978,18.978,0,0,1-15.3,17.456c-.516.1-1.031.168-1.547.228a19.5,19.5,0,0,1-3.249.072,19.182,19.182,0,0,1-5.143-1.031c-.24-.1-.5-.18-.755-.288a18.966,18.966,0,1,1,25.992-16.437Z" transform="translate(680.664 64)"/>
      <path id="Path_1075" data-name="Path 1075" class="cls-18" d="M234,128.841a19.5,19.5,0,0,1-3.249.072,19.182,19.182,0,0,1-5.143-1.031c-.24-.1-.5-.18-.755-.288,0,0,3.944-12.612,6.366-16.221a26.377,26.377,0,0,1,3.237-3.093S230.784,119.525,234,128.841Z" transform="translate(682.64 66.863)"/>
      <path id="Path_1076" data-name="Path 1076" class="cls-19" d="M223.922,116.674a18.367,18.367,0,0,0-1.762,17.516c5.6,14.387,18.139,31.89,18.139,31.89s-6.534-11.222-9.951-29.349c-3.98-21.052,5.695-28.881,5.695-28.881Z" transform="translate(681.817 66.777)"/>
      <path id="Path_1077" data-name="Path 1077" class="cls-20" d="M452.873,224.2a18.684,18.684,0,1,1-37.3-2.29,2.373,2.373,0,0,1,.06-.647,18.343,18.343,0,0,1,3.5-9.219A18.678,18.678,0,0,1,452.873,224.2Z" transform="translate(720.564 85.972)"/>
      <path id="Path_1078" data-name="Path 1078" class="cls-21" d="M434.382,224.293s-10.035-4.3-18.762-4.3a18.343,18.343,0,0,1,3.5-9.219l12.54,7.337Z" transform="translate(720.58 87.246)"/>
      <path id="Path_1079" data-name="Path 1079" class="cls-22" d="M180.445,219.641a29.025,29.025,0,0,0-18.655,8.32l3.764-14.315,12.8-3.9A18.666,18.666,0,0,1,180.445,219.641Z" transform="translate(670.098 87.043)"/>
      <path id="Path_1080" data-name="Path 1080" class="cls-23" d="M162.03,215s-3.6-36.122,171.308-30.236c127.968,4.3,151.586,38.364,151.586,38.364v6.414s-31-31.171-157.545-29.5c-155.519,1.978-165.529,32.933-165.529,32.933Z" transform="translate(670.11 81.946)"/>
      <path id="Path_1081" data-name="Path 1081" class="cls-24" d="M162.03,215s-3.6-36.122,171.308-30.236c127.968,4.3,151.586,38.364,151.586,38.364v6.414s-31-31.171-157.545-29.5c-155.519,1.978-165.529,32.933-165.529,32.933Z" transform="translate(670.11 81.946)"/>
      <path id="Path_1082" data-name="Path 1082" class="cls-25" d="M320.883,224.47a286.909,286.909,0,0,1,34.42.659c21.58,1.487-33.209-61.143-33.209-61.143L280.349,154l-14.159,6.57Z" transform="translate(690.861 75.956)"/>
      <path id="Path_1083" data-name="Path 1083" class="cls-25" d="M393.173,295.609a157.58,157.58,0,0,1-10.73,13.823,85.263,85.263,0,0,1-7.337,7.505,43.151,43.151,0,0,1-3.537,2.865,24.308,24.308,0,0,1-3.489,2.146l-.623-.659-7.013-11.1L352.483,297.6l-3.776-5.911-3.093-4.879-5.323-8.392-.372-.611-1.5-2.4L358.8,259.175l.5-.408,11.689-9.3.1-.084.527,1.1L373.3,254h0c-.2.408-.408.815-.623,1.2-.072.156-.156.312-.24.456-.24.48-.492.959-.755,1.427l-.288.539c-.252.456-.5.9-.767,1.343s-.6,1.043-.911,1.559-.563.935-.851,1.391c-.1.156-.192.324-.3.48-.312.5-.635,1-.971,1.487a3.49,3.49,0,0,1-.228.348c-.312.468-.635.947-.971,1.415-.6.851-1.2,1.7-1.834,2.53,1.031,1.918,2.014,3.776,2.949,5.6.324-.4.635-.8.959-1.2l.6-.791.8-1.079c.336-.456.671-.923,1-1.391s.623-.887.923-1.343.516-.743.755-1.115c.4-.6.791-1.2,1.2-1.81.5-.8,1-1.606,1.475-2.4s.815-1.415,1.2-2.146h0l3.6,7.613,7.433,15.585Z" transform="translate(705.226 94.925)"/>
      <path id="Path_1084" data-name="Path 1084" class="cls-25" d="M365.29,307.23s18.87,22.311,26.9,14.291" transform="translate(710.57 106.43)"/>
      <path id="Path_1085" data-name="Path 1085" class="cls-25" d="M399.376,221q-6.222-1-12.324-1.858l-7-.971" transform="translate(713.506 88.718)"/>
      <path id="Path_1086" data-name="Path 1086" class="cls-25" d="M408.481,218.471q-5.035-.611-9.987-1.2c-3.3-.4-6.714-.719-10.023-1.031q-9.951-.947-19.482-1.607-9.028-.623-17.671-1a671.523,671.523,0,0,0-101.749,3.009c-3.6.384-6.882.791-10.011,1.2-3.6.456-6.941.923-9.975,1.367-2.074.312-4,.611-5.791.911-2.662.42-5,.827-7,1.2-5.731,1.043-8.752,1.75-8.752,1.75" transform="translate(679.297 87.673)"/>
      <path id="Path_1087" data-name="Path 1087" class="cls-25" d="M205.8,232.2a70.4,70.4,0,0,0,1.606,29.48c4.328,16.449,58.589,2.4,58.589,2.4a51.407,51.407,0,0,1-5.623-27.131C261.359,220.974,205.8,232.2,205.8,232.2Z" transform="translate(678.68 90.745)"/>
    </g>
    <path id="Path_1092" data-name="Path 1092" class="cls-1" d="M733,2832.749c49.046-29.92,134.749-116.1,239-35.6s1.444,106.472-85,87.687c-65.61-14.258-66.057.146-111.186,31.992C718.506,2943.233,683.954,2862.669,733,2832.749Z" transform="translate(189 -353)"/>
  </g>
</svg>
